<mxfile host="app.diagrams.net" modified="2023-08-18T16:35:18.749Z" agent="Mozilla/5.0 (Windows NT 10.0; Win64; x64) AppleWebKit/537.36 (KHTML, like Gecko) Chrome/116.0.0.0 Safari/537.36" version="21.6.8" etag="SlU6Bx0_tDI2STNxSRsO" type="github">
  <diagram name="PÃ¡gina-1" id="UuRhsR2gyFJmyZnMDdX8">
    <mxGraphModel>
      <root>
        <mxCell id="0" />
        <mxCell id="1" parent="0" />
      </root>
    </mxGraphModel>
  </diagram>
</mxfile>
